<svg width="19" height="18" viewBox="0 0 19 18" fill="none" xmlns="http://www.w3.org/2000/svg">
<path d="M9.33577 16.9041L9.2524 16.779C8.67353 15.9107 8.38409 15.4765 8.00169 15.1622C7.66316 14.884 7.27308 14.6752 6.85378 14.5479C6.38015 14.4041 5.85836 14.4041 4.81479 14.4041H3.66911C2.73569 14.4041 2.26898 14.4041 1.91246 14.2224C1.59885 14.0626 1.34389 13.8076 1.1841 13.494C1.00244 13.1375 1.00244 12.6708 1.00244 11.7374V4.57072C1.00244 3.6373 1.00244 3.17059 1.1841 2.81407C1.34389 2.50047 1.59885 2.2455 1.91246 2.08571C2.26898 1.90405 2.73569 1.90405 3.66911 1.90405H4.00244C5.86928 1.90405 6.8027 1.90405 7.51574 2.26736C8.14295 2.58694 8.65288 3.09688 8.97246 3.72408C9.33577 4.43712 9.33577 5.37054 9.33577 7.23739M9.33577 16.9041V7.23739M9.33577 16.9041L9.41915 16.779C9.99802 15.9107 10.2875 15.4765 10.6699 15.1622C11.0084 14.884 11.3985 14.6752 11.8178 14.5479C12.2914 14.4041 12.8132 14.4041 13.8568 14.4041H15.0024C15.9359 14.4041 16.4026 14.4041 16.7591 14.2224C17.0727 14.0626 17.3277 13.8076 17.4875 13.494C17.6691 13.1375 17.6691 12.6708 17.6691 11.7374V4.57072C17.6691 3.6373 17.6691 3.17059 17.4875 2.81407C17.3277 2.50047 17.0727 2.2455 16.7591 2.08571C16.4026 1.90405 15.9359 1.90405 15.0024 1.90405H14.6691C12.8023 1.90405 11.8688 1.90405 11.1558 2.26736C10.5286 2.58694 10.0187 3.09688 9.69909 3.72408C9.33577 4.43712 9.33577 5.37054 9.33577 7.23739" stroke="white" stroke-width="2" stroke-linecap="round" stroke-linejoin="round"/>
</svg>
