<svg width="29" height="28" viewBox="0 0 29 28" fill="none" xmlns="http://www.w3.org/2000/svg">
<path d="M13.1433 4.29749H4.36235C3.69697 4.29749 3.05883 4.56181 2.58834 5.03231C2.11784 5.5028 1.85352 6.14094 1.85352 6.80632V24.3682C1.85352 25.0335 2.11784 25.6717 2.58834 26.1422C3.05883 26.6127 3.69697 26.877 4.36235 26.877H21.9242C22.5896 26.877 23.2277 26.6127 23.6982 26.1422C24.1687 25.6717 24.433 25.0335 24.433 24.3682V15.5872" stroke="#7A7A7A" stroke-width="2" stroke-linecap="round" stroke-linejoin="round"/>
<path d="M22.5513 2.41587C23.0503 1.91683 23.7271 1.63647 24.4329 1.63647C25.1386 1.63647 25.8155 1.91683 26.3145 2.41587C26.8135 2.91491 27.0939 3.59175 27.0939 4.29749C27.0939 5.00324 26.8135 5.68008 26.3145 6.17912L14.3976 18.0961L9.37988 19.3505L10.6343 14.3328L22.5513 2.41587Z" stroke="#7A7A7A" stroke-width="2" stroke-linecap="round" stroke-linejoin="round"/>
</svg>
