<svg width="20" height="19" viewBox="0 0 20 19" fill="none" xmlns="http://www.w3.org/2000/svg">
<path d="M9.45166 2.98835H5.95166C4.55153 2.98835 3.85146 2.98835 3.31668 3.26083C2.84628 3.50052 2.46383 3.88297 2.22414 4.35337C1.95166 4.88815 1.95166 5.58822 1.95166 6.98835V13.9883C1.95166 15.3885 1.95166 16.0885 2.22414 16.6233C2.46383 17.0937 2.84628 17.4762 3.31668 17.7159C3.85146 17.9883 4.55153 17.9883 5.95166 17.9883H12.9517C14.3518 17.9883 15.0519 17.9883 15.5866 17.7159C16.057 17.4762 16.4395 17.0937 16.6792 16.6233C16.9517 16.0885 16.9517 15.3885 16.9517 13.9883V10.4883M6.95164 12.9883H8.34709C8.75474 12.9883 8.95857 12.9883 9.15038 12.9423C9.32044 12.9015 9.48301 12.8341 9.63213 12.7427C9.80033 12.6397 9.94446 12.4956 10.2327 12.2073L18.2017 4.23835C18.892 3.54799 18.892 2.4287 18.2017 1.73835C17.5113 1.04799 16.392 1.04799 15.7017 1.73835L7.73269 9.7073C7.44444 9.99555 7.30031 10.1397 7.19724 10.3079C7.10586 10.457 7.03852 10.6196 6.99769 10.7896C6.95164 10.9814 6.95164 11.1853 6.95164 11.5929V12.9883Z" stroke="white" stroke-width="2" stroke-linecap="round" stroke-linejoin="round"/>
</svg>
