<svg width="22" height="21" viewBox="0 0 22 21" fill="none" xmlns="http://www.w3.org/2000/svg">
<path d="M10.6098 1.91245C10.843 1.43996 10.9596 1.20371 11.1179 1.12823C11.2557 1.06256 11.4157 1.06256 11.5534 1.12823C11.7117 1.20371 11.8284 1.43996 12.0616 1.91245L14.2743 6.39507C14.3431 6.53456 14.3775 6.60431 14.4278 6.65846C14.4724 6.70641 14.5258 6.74525 14.5852 6.77285C14.6522 6.80402 14.7292 6.81527 14.8831 6.83776L19.8325 7.5612C20.3537 7.63738 20.6143 7.67547 20.7349 7.80276C20.8398 7.91352 20.8892 8.06571 20.8692 8.21697C20.8462 8.39081 20.6576 8.57457 20.2802 8.94209L16.7001 12.4291C16.5885 12.5378 16.5327 12.5921 16.4967 12.6568C16.4649 12.7141 16.4444 12.777 16.4365 12.842C16.4276 12.9155 16.4408 12.9923 16.4671 13.1458L17.3118 18.0711C17.4009 18.5905 17.4455 18.8503 17.3618 19.0044C17.2889 19.1385 17.1594 19.2326 17.0094 19.2604C16.8369 19.2924 16.6037 19.1697 16.1372 18.9244L11.7125 16.5975C11.5746 16.525 11.5057 16.4887 11.4331 16.4745C11.3688 16.4619 11.3026 16.4619 11.2383 16.4745C11.1657 16.4887 11.0968 16.525 10.9589 16.5975L6.5342 18.9244C6.06771 19.1697 5.83446 19.2924 5.662 19.2604C5.51195 19.2326 5.38246 19.1385 5.30962 19.0044C5.2259 18.8503 5.27045 18.5905 5.35955 18.0711L6.20428 13.1458C6.23062 12.9923 6.24379 12.9155 6.23488 12.842C6.22699 12.777 6.20653 12.7141 6.17465 12.6568C6.13865 12.5921 6.08285 12.5378 5.97124 12.4291L2.39116 8.94209C2.01383 8.57457 1.82517 8.39081 1.80221 8.21697C1.78224 8.06571 1.83158 7.91352 1.93651 7.80276C2.05711 7.67547 2.31771 7.63738 2.83891 7.5612L7.78832 6.83776C7.94224 6.81527 8.0192 6.80402 8.08622 6.77285C8.14557 6.74525 8.19899 6.70641 8.24354 6.65846C8.29385 6.60431 8.32828 6.53456 8.39713 6.39507L10.6098 1.91245Z" stroke="white" stroke-width="2" stroke-linecap="round" stroke-linejoin="round"/>
</svg>
