<svg width="25" height="28" viewBox="0 0 25 28" fill="none" xmlns="http://www.w3.org/2000/svg">
<path d="M1.14941 6.73035H3.65825H23.7289" stroke="#7A7A7A" stroke-width="2" stroke-linecap="round" stroke-linejoin="round"/>
<path d="M21.22 6.73044V24.2923C21.22 24.9577 20.9557 25.5958 20.4852 26.0663C20.0147 26.5368 19.3766 26.8011 18.7112 26.8011H6.16704C5.50165 26.8011 4.86352 26.5368 4.39302 26.0663C3.92253 25.5958 3.6582 24.9577 3.6582 24.2923V6.73044M7.42145 6.73044V4.2216C7.42145 3.55622 7.68578 2.91809 8.15628 2.44759C8.62677 1.97709 9.2649 1.71277 9.93029 1.71277H14.948C15.6133 1.71277 16.2515 1.97709 16.722 2.44759C17.1925 2.91809 17.4568 3.55622 17.4568 4.2216V6.73044" stroke="#7A7A7A" stroke-width="2" stroke-linecap="round" stroke-linejoin="round"/>
</svg>
