<svg width="19" height="20" viewBox="0 0 19 20" fill="none" xmlns="http://www.w3.org/2000/svg">
<path d="M3.76602 16.0484C4.27296 14.854 5.45654 14.0164 6.83577 14.0164H11.8358C13.215 14.0164 14.3986 14.854 14.9055 16.0484M12.6691 7.76636C12.6691 9.60731 11.1767 11.0997 9.33577 11.0997C7.49483 11.0997 6.00244 9.60731 6.00244 7.76636C6.00244 5.92541 7.49483 4.43302 9.33577 4.43302C11.1767 4.43302 12.6691 5.92541 12.6691 7.76636ZM17.6691 9.84969C17.6691 14.4521 13.9381 18.183 9.33577 18.183C4.7334 18.183 1.00244 14.4521 1.00244 9.84969C1.00244 5.24732 4.7334 1.51636 9.33577 1.51636C13.9381 1.51636 17.6691 5.24732 17.6691 9.84969Z" stroke="white" stroke-width="2" stroke-linecap="round" stroke-linejoin="round"/>
</svg>
